<?xml version="1.0" standalone="no"?>
<!DOCTYPE svg PUBLIC "-//W3C//DTD SVG 20010904//EN"
 "http://www.w3.org/TR/2001/REC-SVG-20010904/DTD/svg10.dtd">
<svg version="1.0" xmlns="http://www.w3.org/2000/svg"
 width="192.000000pt" height="192.000000pt" viewBox="0 0 192.000000 192.000000"
 preserveAspectRatio="xMidYMid meet">
<metadata>
Created by potrace 1.14, written by Peter Selinger 2001-2017
</metadata>
<g transform="translate(0.000000,192.000000) scale(0.100000,-0.100000)"
fill="#000000" stroke="none">
<path d="M1055 1857 c-27 -4 -64 -12 -81 -18 -17 -5 -45 -9 -63 -9 -17 0 -45
-7 -61 -15 -17 -9 -30 -13 -30 -10 0 6 -15 -1 -125 -58 -207 -106 -275 -136
-314 -138 -23 -2 -47 -9 -53 -16 -14 -17 4 -23 62 -22 118 4 280 -5 280 -14 0
-5 7 -4 15 3 24 20 30 -15 8 -47 -44 -62 -36 -81 24 -63 33 9 40 8 55 -10 9
-11 14 -29 11 -39 -7 -28 -48 -63 -78 -67 -15 -1 -35 -10 -45 -19 -10 -9 -46
-23 -80 -31 -81 -19 -100 -8 -125 73 -16 50 -67 128 -85 128 -7 0 -36 24 -58
49 -63 70 -90 77 -73 21 5 -17 14 -47 21 -67 14 -47 22 -87 34 -178 8 -57 25
-140 38 -184 16 -58 18 -65 21 -118 7 -98 121 -257 171 -239 14 6 25 24 34 55
10 34 18 47 30 45 9 -1 20 0 25 1 44 14 128 22 140 12 8 -7 24 -5 50 8 34 17
41 17 70 5 18 -8 45 -25 62 -38 l29 -24 -36 -34 c-49 -46 -71 -92 -63 -132 7
-37 26 -90 35 -97 3 -3 16 -21 28 -41 21 -35 68 -66 114 -74 44 -9 87 32 139
132 18 34 39 65 47 68 16 6 82 -52 82 -72 0 -6 8 -18 18 -25 18 -13 52 -74 55
-99 2 -8 6 -20 10 -26 4 -7 11 -35 14 -63 4 -39 3 -50 -8 -51 -8 0 -23 -3 -34
-5 -44 -10 -263 -8 -276 2 -8 6 -30 11 -49 11 -52 1 -128 24 -183 55 -26 16
-54 28 -62 28 -8 0 -15 5 -15 10 0 6 -4 10 -9 10 -5 0 -39 17 -74 38 -49 28
-78 55 -121 112 -31 41 -56 77 -56 81 0 3 -13 15 -29 27 l-29 21 10 -37 c6
-20 14 -41 18 -47 5 -5 9 -13 10 -17 9 -37 13 -48 20 -48 4 0 11 -12 14 -26 4
-15 18 -43 32 -63 13 -19 24 -43 24 -51 0 -24 106 -127 180 -176 36 -23 74
-51 86 -62 18 -17 80 -54 94 -57 3 -1 16 -5 30 -9 14 -5 120 -9 235 -9 184 0
242 4 305 20 8 2 22 4 30 4 8 0 24 4 35 8 52 21 96 32 104 26 15 -9 94 26 117
51 12 13 20 34 19 47 -5 43 -59 114 -135 177 -45 38 -84 80 -98 106 -12 24
-27 44 -32 44 -6 0 -10 7 -10 15 0 8 -4 15 -10 15 -9 0 -32 19 -103 85 -18 17
-55 42 -82 57 -60 32 -69 60 -26 77 28 12 88 10 109 -3 6 -3 28 -8 49 -10 44
-5 113 -32 113 -45 0 -8 42 -22 67 -23 5 0 28 -15 53 -33 25 -18 52 -34 60
-36 30 -6 65 11 81 38 18 31 18 125 0 131 -6 2 -11 9 -11 16 0 7 -9 23 -20 36
-11 13 -20 26 -20 30 0 3 -21 19 -47 36 -25 16 -52 35 -60 42 -7 7 -13 11 -13
9 0 -3 -19 1 -42 8 -24 7 -50 11 -58 10 -8 -2 -73 -31 -145 -65 -101 -48 -141
-73 -177 -111 -51 -54 -55 -55 -83 -35 -17 13 -16 14 18 31 20 9 38 21 38 26
3 18 6 25 25 56 10 18 22 33 27 33 4 0 7 6 7 14 0 8 6 21 13 28 14 14 71 130
82 166 3 12 10 22 14 22 4 0 7 8 8 19 1 10 14 58 29 107 28 93 32 114 38 204
2 30 5 55 6 55 2 0 4 23 6 50 12 178 11 185 -36 185 -14 0 -30 3 -34 7 -3 4
-23 8 -44 9 -112 5 -266 15 -271 18 -3 1 -28 -2 -56 -7z m162 -70 c4 -7 24
-24 43 -37 19 -13 37 -25 38 -26 16 -11 28 -82 20 -111 -5 -18 -11 -48 -12
-66 -2 -17 -12 -50 -21 -72 -10 -22 -21 -49 -26 -60 -23 -60 -72 -156 -84
-169 -8 -7 -27 -36 -43 -62 l-28 -49 -60 -1 c-32 -1 -66 3 -75 7 -47 24 -21
96 44 125 62 28 76 47 85 112 11 84 6 99 -34 112 -19 7 -41 9 -49 6 -29 -11
-40 3 -38 47 5 90 5 116 -1 125 -7 12 23 44 57 59 12 6 43 20 68 32 25 11 53
21 62 21 9 0 19 5 22 10 9 14 22 13 32 -3z m-620 -559 c8 -7 24 -13 36 -15 11
-2 25 -7 31 -12 6 -4 23 -11 37 -15 36 -8 41 -25 25 -86 -10 -38 -25 -62 -60
-95 -25 -25 -50 -45 -54 -45 -25 0 -41 29 -43 75 -1 28 -7 59 -12 70 -14 26
-37 117 -32 124 7 12 58 11 72 -1z m539 -458 c8 0 14 -5 14 -12 0 -18 -31 -48
-49 -48 -9 0 -24 -8 -33 -17 -56 -59 -81 -58 -58 2 17 44 71 87 98 79 8 -2 20
-4 28 -4z"/>
<path d="M169 553 c-5 -71 -16 -102 -43 -125 -11 -9 -26 -17 -31 -18 -19 0
-44 -57 -50 -111 -12 -113 -12 -130 -3 -135 4 -3 6 -9 4 -13 -3 -4 8 -22 25
-40 28 -31 31 -32 52 -17 12 9 32 21 45 26 12 5 22 16 22 24 0 8 6 19 13 23 6
4 21 24 31 43 11 19 23 38 28 41 5 3 10 17 12 30 1 13 8 34 14 46 7 12 12 31
12 43 0 11 6 33 13 48 11 22 15 81 8 126 -2 14 -31 -15 -31 -31 0 -8 -10 -23
-22 -33 -29 -23 -42 -13 -59 45 -13 45 -38 61 -40 28z"/>
</g>
</svg>
